<?xml version="1.0" encoding="utf-8"?><!-- Generator: Adobe Illustrator 16.0.0, SVG Export Plug-In . SVG Version: 6.00 Build 0)  --><!DOCTYPE svg PUBLIC "-//W3C//DTD SVG 1.1//EN" "http://www.w3.org/Graphics/SVG/1.1/DTD/svg11.dtd"><svg version="1.1" id="Layer_1" xmlns="http://www.w3.org/2000/svg" xmlns:xlink="http://www.w3.org/1999/xlink" x="0px" y="0px"	 width="580.581px" height="106.495px" viewBox="0 0 580.581 106.495" enable-background="new 0 0 580.581 106.495"	 xml:space="preserve"><rect x="517.667" y="41.583" fill="#FAC819" width="51.833" height="49.5"/><g>	<g>		<path fill="#FAC819" d="M441.488,22.138c-1.057-1.751-1.349-3.516-0.873-5.293c0.477-1.779,1.5-3.267,3.073-4.466			c1.268-0.966,2.655-1.593,4.164-1.877c1.51-0.288,2.985-0.117,4.43,0.51c2.558,1.09,4.769,2.857,6.634,5.306			c1.731,2.271,2.963,4.907,3.695,7.909c0.732,2.999,0.84,5.973,0.324,8.924c-0.124,0.924-0.471,1.602-1.039,2.034			c-0.438,0.333-1.154,0.569-2.154,0.709c-0.482,0.092-0.857-0.038-1.124-0.387c-0.267-0.351-0.375-1.425-0.329-3.22			c0.048-1.798-0.198-3.047-0.73-3.744c-1.065-1.4-1.923-2.367-2.576-2.906c-0.651-0.541-1.517-0.746-2.593-0.615			c-3.5,0.39-5.617,0.514-6.343,0.379c-1.64-0.342-2.994-1.209-4.059-2.607C441.754,22.488,441.588,22.27,441.488,22.138z"/>	</g></g><path fill="#FFFFFF" d="M565.487,67.916h-9c0.002,0.084,0.013,0.165,0.013,0.249c0,6.948-5.635,12.583-12.583,12.583	s-12.583-5.635-12.583-12.583s5.635-12.583,12.583-12.583c2.354,0,4.555,0.649,6.438,1.777L534.781,73.61l5.089,4.877L561.6,55.812	c-0.336-0.48-0.692-0.945-1.066-1.396h0.02c-3.959-4.785-9.94-7.834-16.636-7.834c-11.921,0-21.584,9.663-21.584,21.584	c0,11.92,9.663,21.583,21.584,21.583c11.92,0,21.583-9.663,21.583-21.583C565.5,68.082,565.488,68,565.487,67.916z"/><g>	<path fill="white" d="M57.038,28.386c-4.766-4.169-10.456-6.283-16.911-6.283c-7.602,0-13.684,2.125-18.077,6.315		c-4.406,4.203-6.641,10.034-6.641,17.331v45.432l9.843,0.118V66.366c1.744,1.163,3.511,2.308,5.272,3.412l0.093,0.052		c2.706,1.321,5.683,1.991,8.849,1.991c0.659,0,1.386-0.033,2.16-0.098c0.791-0.064,1.503-0.166,2.087-0.295		c6.24-1.167,11.453-4.05,15.492-8.569c4.057-4.539,6.113-9.951,6.113-16.086v-1.036c0-0.423-0.036-0.858-0.1-1.232		C64.564,37.988,61.813,32.564,57.038,28.386z M30.054,35.995c2.856-2.789,6.121-4.145,9.979-4.145c4.044,0,7.43,1.415,10.35,4.325		c2.917,2.909,4.336,6.314,4.336,10.408c0,4.162-1.375,7.585-4.202,10.464c-2.822,2.873-6.159,4.27-10.2,4.27		c-4.233,0-7.631-1.366-10.39-4.177c-2.726-2.774-4.107-6.58-4.107-11.31C25.819,41.994,27.205,38.776,30.054,35.995z"/>	<path fill="white" d="M94.343,64.964c-0.271-0.473-0.392-0.773-0.446-0.951c4.591-1.043,8.409-2.929,11.343-5.602		c4.106-3.707,6.188-8.755,6.188-15.003c0-5.714-1.999-10.742-5.94-14.945c-3.959-4.221-8.878-6.36-14.62-6.36		c-6.119,0-11.245,2.157-15.234,6.41c-3.973,4.235-5.987,9.759-5.987,16.418v46.356h9.465V65.152c0-0.825,0.059-1.578,0.174-2.239		c0.032-0.186,0.066-0.312,0.094-0.394c0.252,0.001,0.502,0.101,0.75,0.293c0.06,0.048,0.421,0.381,1.72,2.282l19.866,26.2		l11.579-0.187L96.148,67.654C95.347,66.563,94.74,65.657,94.343,64.964z M101.586,42.852c0,3.255-0.957,5.999-2.925,8.389		c-1.921,2.33-4.301,3.463-7.275,3.463c-3.395,0-6.087-1.048-8.233-3.203c-2.146-2.154-3.19-4.767-3.19-7.987		c0-3.165,1.08-5.846,3.302-8.194c2.209-2.333,4.804-3.468,7.933-3.468c2.932,0,5.338,1.068,7.356,3.267		C100.595,37.342,101.586,39.872,101.586,42.852z"/>	<path fill="white" d="M148.319,22.764c-9.613,0-17.94,3.387-24.749,10.066c-6.814,6.685-10.269,14.889-10.269,24.385		c0,9.553,3.42,17.849,10.164,24.656c6.745,6.813,14.948,10.267,24.381,10.267c9.49,0,17.739-3.403,24.516-10.116		c6.78-6.716,10.218-14.903,10.218-24.334c0-9.485-3.37-17.764-10.016-24.604C165.91,26.235,157.752,22.764,148.319,22.764z		 M148.272,82.389c-6.891,0-12.865-2.446-17.758-7.271c-4.89-4.821-7.369-10.749-7.369-17.619c0-6.933,2.479-12.893,7.369-17.714		c4.894-4.825,10.869-7.271,17.758-7.271c6.822,0,12.747,2.461,17.61,7.314c4.862,4.854,7.328,10.799,7.328,17.671		c0,6.873-2.45,12.803-7.281,17.623C161.099,79.943,155.158,82.389,148.272,82.389z"/>	<path fill="white" d="M224.093,22.59c-0.077,0.129-0.311,0.52-7.779,15.08c-2.311,4.495-4.013,7.616-5.057,9.274		c-1.338,2.103-1.999,2.55-2.178,2.64c-0.218-0.11-1.045-0.713-2.814-3.913c-2.062-3.686-5.833-11.421-11.21-22.99l-0.269-0.578		h-12.214l0.768,1.465c2.739,5.221,5.569,10.558,8.41,15.853c3.373,6.426,5.97,11.706,7.718,15.696		c2.201,5.006,3.317,8.553,3.317,10.542v25.534h11.543V65.753c0-1.359,0.671-4.385,3.873-11.085		c2.057-4.356,4.907-9.763,8.471-16.069c4.705-8.332,7.511-13.395,8.339-15.048l0.725-1.448h-11.353L224.093,22.59z"/>	<path fill="white" d="M247.842,80.532c-0.075-0.02-0.136-0.039-0.188-0.056l-0.158-2.568V60.616c0-0.671,0.12-1.154,0.346-1.397		c0.171-0.184,0.429-0.411,0.736-0.456c0.144-0.028,0.518-0.075,1.414-0.075h18.859V48.561h-19.426		c-0.517,0-1.196-0.076-1.495-0.442c-0.13-0.159-0.434-0.707-0.434-2.356V33.131c0-0.501,0.086-0.882,0.207-1.034		c0.014-0.01,0.362-0.246,1.925-0.246h20.452v-9.748h-32.899v69.279h33.655V80.688h-20.925		C248.684,80.688,248.111,80.604,247.842,80.532z"/>	<path fill="white" d="M308.483,22.48c-9.489,0-17.752,3.387-24.56,10.066c-6.814,6.684-10.269,14.855-10.269,24.29		c0,9.616,3.436,17.96,10.211,24.8c6.778,6.842,15.092,10.312,24.711,10.312c3.877,0,7.778-0.721,11.594-2.142l0.651-0.243V79.03		l-1.447,0.724c-1.565,0.783-3.277,1.409-5.087,1.862c-1.801,0.45-3.754,0.679-5.805,0.679c-6.806,0-12.701-2.506-17.521-7.447		c-4.827-4.945-7.275-10.91-7.275-17.728c0-6.876,2.446-12.839,7.271-17.724c4.82-4.881,10.717-7.356,17.526-7.356		c3.863,0,7.566,0.826,11.006,2.455l1.428,0.676V24.448l-0.699-0.22C316.545,23.068,312.597,22.48,308.483,22.48z"/>	<path fill="white" d="M359.508,22.48c-9.489,0-17.752,3.387-24.56,10.066c-6.814,6.684-10.269,14.855-10.269,24.29		c0,9.616,3.436,17.96,10.211,24.8c6.778,6.842,15.092,10.312,24.711,10.312c3.877,0,7.778-0.721,11.594-2.142l0.651-0.243V79.03		l-1.447,0.724c-1.565,0.783-3.277,1.409-5.087,1.862c-1.801,0.45-3.754,0.679-5.805,0.679c-6.806,0-12.701-2.506-17.521-7.447		c-4.827-4.945-7.275-10.91-7.275-17.728c0-6.876,2.446-12.839,7.271-17.724c4.82-4.881,10.717-7.356,17.526-7.356		c3.863,0,7.566,0.826,11.006,2.455l1.428,0.676V24.448l-0.699-0.22C367.57,23.068,363.622,22.48,359.508,22.48z"/>	<rect x="377.973" y="21.63" fill="white" width="11.166" height="69.657"/>	<path fill="white" d="M429.053,22.764c-9.614,0-17.941,3.387-24.749,10.066c-6.814,6.685-10.269,14.889-10.269,24.385		c0,9.553,3.42,17.849,10.165,24.656c6.745,6.813,14.948,10.267,24.381,10.267c9.49,0,17.738-3.403,24.517-10.117		c6.778-6.716,10.216-14.902,10.216-24.333c0-9.486-3.369-17.765-10.016-24.604C446.643,26.235,438.486,22.764,429.053,22.764z		 M429.004,82.389c-6.891,0-12.864-2.446-17.757-7.271c-4.891-4.821-7.37-10.749-7.37-17.619c0-6.932,2.479-12.892,7.37-17.714		c4.895-4.825,10.868-7.271,17.757-7.271c6.822,0,12.747,2.461,17.612,7.314c4.861,4.854,7.327,10.799,7.327,17.671		s-2.449,12.802-7.281,17.623C441.833,79.943,435.892,82.389,429.004,82.389z"/>	<path fill="white" d="M507.897,22.197v37.895c0,1.209-0.062,2.396-0.182,3.53c-0.062,0.577-0.138,0.927-0.198,1.13		c-0.177-0.092-0.459-0.271-0.878-0.614c-0.63-0.521-1.401-1.334-2.309-2.436l-35.742-41.231v70.911h9.465V50.789		c0-1.452,0.533-1.63,0.733-1.696c0.408-0.138,0.812,0.023,1.236,0.41c0.045,0.048,0.288,0.325,1.565,1.939l34.116,39.502		l0.299,0.347h1.926V22.197H507.897z"/></g></svg>